<?xml version="1.0" encoding="UTF-8" standalone="no"?>
<!DOCTYPE svg PUBLIC "-//W3C//DTD SVG 1.1//EN"
 "http://www.w3.org/Graphics/SVG/1.1/DTD/svg11.dtd">
<!-- Generated by graphviz version 2.44.1 (20200629.0846)
 -->
<!-- Pages: 1 -->
<svg width="313pt" height="479pt"
 viewBox="0.00 0.00 313.00 479.00" xmlns="http://www.w3.org/2000/svg" xmlns:xlink="http://www.w3.org/1999/xlink">
<g id="graph0" class="graph" transform="scale(1 1) rotate(0) translate(4 475)">
<polygon fill="white" stroke="transparent" points="-4,4 -4,-475 309,-475 309,4 -4,4"/>
<!-- 5 -->
<g id="node1" class="node">
<title>5</title>
<ellipse fill="none" stroke="black" cx="73" cy="-453" rx="27" ry="18"/>
<text text-anchor="middle" x="73" y="-449.3" font-family="Times New Roman,serif" font-size="14.00">5</text>
</g>
<!-- 7 -->
<g id="node2" class="node">
<title>7</title>
<ellipse fill="none" stroke="black" cx="27" cy="-366" rx="27" ry="18"/>
<text text-anchor="middle" x="27" y="-362.3" font-family="Times New Roman,serif" font-size="14.00">7</text>
</g>
<!-- 5&#45;&#45;7 -->
<g id="edge1" class="edge">
<title>5&#45;&#45;7</title>
<path fill="none" stroke="black" d="M64.13,-435.61C55.93,-420.46 43.82,-398.09 35.69,-383.05"/>
<text text-anchor="middle" x="62" y="-405.8" font-family="Times New Roman,serif" font-size="14.00">1.0</text>
</g>
<!-- 3 -->
<g id="node3" class="node">
<title>3</title>
<ellipse fill="none" stroke="black" cx="49" cy="-279" rx="27" ry="18"/>
<text text-anchor="middle" x="49" y="-275.3" font-family="Times New Roman,serif" font-size="14.00">3</text>
</g>
<!-- 7&#45;&#45;3 -->
<g id="edge13" class="edge">
<title>7&#45;&#45;3</title>
<path fill="none" stroke="black" d="M31.35,-348.21C35.18,-333.4 40.74,-311.93 44.59,-297.05"/>
<text text-anchor="middle" x="49" y="-318.8" font-family="Times New Roman,serif" font-size="14.00">1.0</text>
</g>
<!-- 3&#45;&#45;5 -->
<g id="edge2" class="edge">
<title>3&#45;&#45;5</title>
<path fill="none" stroke="black" d="M55.93,-296.51C58.14,-302.28 60.42,-308.85 62,-315 73.39,-359.26 76.3,-371.32 75,-417 74.83,-422.84 74.51,-429.22 74.17,-434.92"/>
<text text-anchor="middle" x="83" y="-362.3" font-family="Times New Roman,serif" font-size="14.00">1.0</text>
</g>
<!-- 9 -->
<g id="node6" class="node">
<title>9</title>
<ellipse fill="none" stroke="black" cx="98" cy="-192" rx="27" ry="18"/>
<text text-anchor="middle" x="98" y="-188.3" font-family="Times New Roman,serif" font-size="14.00">9</text>
</g>
<!-- 3&#45;&#45;9 -->
<g id="edge12" class="edge">
<title>3&#45;&#45;9</title>
<path fill="none" stroke="black" d="M58.22,-262.01C66.92,-246.91 79.91,-224.38 88.66,-209.21"/>
<text text-anchor="middle" x="85" y="-231.8" font-family="Times New Roman,serif" font-size="14.00">2.0</text>
</g>
<!-- 6 -->
<g id="node4" class="node">
<title>6</title>
<ellipse fill="none" stroke="black" cx="52" cy="-105" rx="27" ry="18"/>
<text text-anchor="middle" x="52" y="-101.3" font-family="Times New Roman,serif" font-size="14.00">6</text>
</g>
<!-- 6&#45;&#45;3 -->
<g id="edge3" class="edge">
<title>6&#45;&#45;3</title>
<path fill="none" stroke="black" d="M49.44,-123C47.51,-136.72 45.02,-156.56 44,-174 42.21,-204.5 44.96,-240.05 47.04,-260.7"/>
<text text-anchor="middle" x="53" y="-188.3" font-family="Times New Roman,serif" font-size="14.00">2.0</text>
</g>
<!-- 8 -->
<g id="node5" class="node">
<title>8</title>
<ellipse fill="none" stroke="black" cx="167" cy="-366" rx="27" ry="18"/>
<text text-anchor="middle" x="167" y="-362.3" font-family="Times New Roman,serif" font-size="14.00">8</text>
</g>
<!-- 8&#45;&#45;9 -->
<g id="edge4" class="edge">
<title>8&#45;&#45;9</title>
<path fill="none" stroke="black" d="M160.38,-348.51C147.23,-315.72 117.92,-242.65 104.7,-209.69"/>
<text text-anchor="middle" x="151.5" y="-275.3" font-family="Times New Roman,serif" font-size="14.00">11.0</text>
</g>
<!-- 0 -->
<g id="node7" class="node">
<title>0</title>
<ellipse fill="none" stroke="black" cx="219" cy="-279" rx="27" ry="18"/>
<text text-anchor="middle" x="219" y="-275.3" font-family="Times New Roman,serif" font-size="14.00">0</text>
</g>
<!-- 8&#45;&#45;0 -->
<g id="edge14" class="edge">
<title>8&#45;&#45;0</title>
<path fill="none" stroke="black" d="M176.78,-349.01C186.08,-333.82 199.98,-311.09 209.26,-295.92"/>
<text text-anchor="middle" x="205" y="-318.8" font-family="Times New Roman,serif" font-size="14.00">4.0</text>
</g>
<!-- 9&#45;&#45;6 -->
<g id="edge7" class="edge">
<title>9&#45;&#45;6</title>
<path fill="none" stroke="black" d="M89.13,-174.61C80.93,-159.46 68.82,-137.09 60.69,-122.05"/>
<text text-anchor="middle" x="86" y="-144.8" font-family="Times New Roman,serif" font-size="14.00">5.0</text>
</g>
<!-- 1 -->
<g id="node10" class="node">
<title>1</title>
<ellipse fill="none" stroke="black" cx="188" cy="-105" rx="27" ry="18"/>
<text text-anchor="middle" x="188" y="-101.3" font-family="Times New Roman,serif" font-size="14.00">1</text>
</g>
<!-- 9&#45;&#45;1 -->
<g id="edge17" class="edge">
<title>9&#45;&#45;1</title>
<path fill="none" stroke="black" d="M105.75,-174.29C111.19,-163.83 119.23,-150.58 129,-141 139.71,-130.49 154.17,-121.85 166.1,-115.78"/>
<text text-anchor="middle" x="138" y="-144.8" font-family="Times New Roman,serif" font-size="14.00">1.0</text>
</g>
<!-- 0&#45;&#45;9 -->
<g id="edge9" class="edge">
<title>0&#45;&#45;9</title>
<path fill="none" stroke="black" d="M203.63,-263.57C192.09,-253.09 175.64,-238.9 160,-228 146.92,-218.89 131.28,-210.07 118.98,-203.57"/>
<text text-anchor="middle" x="187" y="-231.8" font-family="Times New Roman,serif" font-size="14.00">2.0</text>
</g>
<!-- 2 -->
<g id="node8" class="node">
<title>2</title>
<ellipse fill="none" stroke="black" cx="278" cy="-192" rx="27" ry="18"/>
<text text-anchor="middle" x="278" y="-188.3" font-family="Times New Roman,serif" font-size="14.00">2</text>
</g>
<!-- 0&#45;&#45;2 -->
<g id="edge5" class="edge">
<title>0&#45;&#45;2</title>
<path fill="none" stroke="black" d="M229.82,-262.41C240.4,-247.17 256.42,-224.08 267.05,-208.78"/>
<text text-anchor="middle" x="261" y="-231.8" font-family="Times New Roman,serif" font-size="14.00">1.0</text>
</g>
<!-- 0&#45;&#45;1 -->
<g id="edge10" class="edge">
<title>0&#45;&#45;1</title>
<path fill="none" stroke="black" d="M215.91,-260.88C209.97,-227.91 197.01,-155.97 191.07,-123.05"/>
<text text-anchor="middle" x="215" y="-188.3" font-family="Times New Roman,serif" font-size="14.00">2.0</text>
</g>
<!-- 4 -->
<g id="node9" class="node">
<title>4</title>
<ellipse fill="none" stroke="black" cx="188" cy="-18" rx="27" ry="18"/>
<text text-anchor="middle" x="188" y="-14.3" font-family="Times New Roman,serif" font-size="14.00">4</text>
</g>
<!-- 2&#45;&#45;4 -->
<g id="edge6" class="edge">
<title>2&#45;&#45;4</title>
<path fill="none" stroke="black" d="M273.6,-173.97C270.8,-164.13 266.8,-151.63 262,-141 243.75,-100.59 214.84,-57.04 199.1,-34.5"/>
<text text-anchor="middle" x="261" y="-101.3" font-family="Times New Roman,serif" font-size="14.00">3.0</text>
</g>
<!-- 2&#45;&#45;1 -->
<g id="edge8" class="edge">
<title>2&#45;&#45;1</title>
<path fill="none" stroke="black" d="M263.06,-176.47C252.71,-166.45 238.59,-152.84 226,-141 218.55,-133.99 210.2,-126.29 203.23,-119.89"/>
<text text-anchor="middle" x="249" y="-144.8" font-family="Times New Roman,serif" font-size="14.00">5.0</text>
</g>
<!-- 4&#45;&#45;3 -->
<g id="edge11" class="edge">
<title>4&#45;&#45;3</title>
<path fill="none" stroke="black" d="M161.1,-20.68C121.53,-24.77 48.77,-38.81 16,-87 -21.65,-142.38 19.17,-227.07 39.22,-262.05"/>
<text text-anchor="middle" x="11" y="-144.8" font-family="Times New Roman,serif" font-size="14.00">3.0</text>
</g>
<!-- 1&#45;&#45;3 -->
<g id="edge16" class="edge">
<title>1&#45;&#45;3</title>
<path fill="none" stroke="black" d="M181.56,-122.53C172.74,-143.95 155.53,-181.9 134,-210 120.8,-227.23 114.86,-229.33 98,-243 88.25,-250.9 76.88,-259.08 67.54,-265.55"/>
<text text-anchor="middle" x="165" y="-188.3" font-family="Times New Roman,serif" font-size="14.00">3.0</text>
</g>
<!-- 1&#45;&#45;4 -->
<g id="edge15" class="edge">
<title>1&#45;&#45;4</title>
<path fill="none" stroke="black" d="M188,-86.8C188,-72.05 188,-50.92 188,-36.18"/>
<text text-anchor="middle" x="197" y="-57.8" font-family="Times New Roman,serif" font-size="14.00">5.0</text>
</g>
</g>
</svg>
